<svg width="55" height="55" viewBox="0 0 55 55" fill="none" xmlns="http://www.w3.org/2000/svg">
<rect width="55" height="55" rx="15" fill="#F2F4FF"/>
<g clip-path="url(#clip0_9_661)">
<path d="M36.875 20.8979V21.6021C36.875 23.4084 38.2969 23.3323 38.4375 23.3323C38.5896 23.3323 40 23.4188 40 21.6021V20.8979C40 19.0917 38.5781 19.1677 38.4375 19.1677C38.2854 19.1677 36.875 19.0813 36.875 20.8979ZM39.0885 20.7834V21.7063C39.0885 22.4386 38.8604 22.6854 38.4479 22.6854C38.0354 22.6854 37.7969 22.4386 37.7969 21.7063V20.7844C37.7969 20.0709 38.0365 19.824 38.4375 19.824C38.85 19.8136 39.0885 20.0709 39.0885 20.7844V20.7834ZM36.875 28.1896V28.8938C36.875 30.7 38.2969 30.624 38.4375 30.624C38.5896 30.624 40 30.7104 40 28.8938V28.1896C40 26.3834 38.5781 26.4594 38.4375 26.4594C38.2854 26.4594 36.875 26.3729 36.875 28.1896ZM39.0885 28.075V28.9979C39.0885 29.7302 38.8604 29.9771 38.4479 29.9771C38.0354 29.9771 37.7969 29.7302 37.7969 28.9979V28.0761C37.7969 27.3625 38.0365 27.1156 38.4375 27.1156C38.85 27.1052 39.0885 27.3625 39.0885 28.0761V28.075ZM36.875 35.4813V36.1854C36.875 37.9917 38.2969 37.9156 38.4375 37.9156C38.5896 37.9156 40 38.0021 40 36.1854V35.4813C40 33.675 38.5781 33.7511 38.4375 33.7511C38.2854 33.7511 36.875 33.6646 36.875 35.4813ZM39.0885 35.3667V36.2896C39.0885 37.0219 38.8604 37.2688 38.4479 37.2688C38.0354 37.2688 37.7969 37.0219 37.7969 36.2896V35.3677C37.7969 34.6542 38.0365 34.4073 38.4375 34.4073C38.85 34.3969 39.0885 34.6542 39.0885 35.3677V35.3667ZM32.7083 25.0646V25.7688C32.7083 27.575 34.1302 27.499 34.2708 27.499C34.4229 27.499 35.8333 27.5854 35.8333 25.7688V25.0646C35.8333 23.2584 34.4115 23.3344 34.2708 23.3344C34.1187 23.3344 32.7083 23.2479 32.7083 25.0646ZM34.9219 24.95V25.8729C34.9219 26.6052 34.6938 26.8521 34.2812 26.8521C33.8687 26.8521 33.6302 26.6052 33.6302 25.8729V24.9511C33.6302 24.2375 33.8698 23.9906 34.2708 23.9906C34.6833 23.9802 34.9219 24.2375 34.9219 24.9511V24.95ZM32.7083 16.6563V17.3302L33.75 17.0823V20.2084H34.7917V16.0417M32.7083 31.2396V31.9136L33.75 31.6656V34.7917H34.7927V30.625M31.6667 36.875V40H15V36.875C15 34.1042 20.5521 32.7084 23.3333 32.7084C26.1146 32.7084 31.6667 34.1042 31.6667 36.875Z" fill="#002A3B"/>
<path d="M23.3334 31.6666C25.6346 31.6666 27.5001 29.8012 27.5001 27.5C27.5001 25.1988 25.6346 23.3333 23.3334 23.3333C21.0322 23.3333 19.1667 25.1988 19.1667 27.5C19.1667 29.8012 21.0322 31.6666 23.3334 31.6666Z" fill="#002A3B"/>
<path d="M33.6301 39.5344C33.6301 38.8208 33.8697 38.574 34.2708 38.574C34.6833 38.5635 34.9218 38.8208 34.9218 39.5344V40H35.8333V39.6479C35.8333 37.8417 34.4114 37.9177 34.2708 37.9177C34.1187 37.9177 32.7083 37.8312 32.7083 39.6479V40H33.6301V39.5344Z" fill="#002A3B"/>
</g>
<defs>
<clipPath id="clip0_9_661">
<rect width="25" height="25" fill="white" transform="translate(15 15)"/>
</clipPath>
</defs>
</svg>
